<?xml version="1.0" encoding="UTF-8" standalone="no"?>
<svg
   xmlns:dc="http://purl.org/dc/elements/1.1/"
   xmlns:cc="http://creativecommons.org/ns#"
   xmlns:rdf="http://www.w3.org/1999/02/22-rdf-syntax-ns#"
   xmlns:svg="http://www.w3.org/2000/svg"
   xmlns="http://www.w3.org/2000/svg"
   xmlns:sodipodi="http://sodipodi.sourceforge.net/DTD/sodipodi-0.dtd"
   xmlns:inkscape="http://www.inkscape.org/namespaces/inkscape"
   width="60"
   height="60"
   viewBox="0 0 60 60"
   fill="none"
   version="1.1"
   id="svg6"
   sodipodi:docname="logo1.svg"
   inkscape:version="0.92.4 (5da689c313, 2019-01-14)">
  <metadata
     id="metadata12">
    <rdf:RDF>
      <cc:Work
         rdf:about="">
        <dc:format>image/svg+xml</dc:format>
        <dc:type
           rdf:resource="http://purl.org/dc/dcmitype/StillImage" />
        <dc:title></dc:title>
      </cc:Work>
    </rdf:RDF>
  </metadata>
  <defs
     id="defs10" />
  <sodipodi:namedview
     pagecolor="#ffffff"
     bordercolor="#666666"
     borderopacity="1"
     objecttolerance="10"
     gridtolerance="10"
     guidetolerance="10"
     inkscape:pageopacity="0"
     inkscape:pageshadow="2"
     inkscape:window-width="1920"
     inkscape:window-height="1015"
     id="namedview8"
     showgrid="false"
     inkscape:zoom="3.9333333"
     inkscape:cx="30"
     inkscape:cy="30"
     inkscape:window-x="1920"
     inkscape:window-y="0"
     inkscape:window-maximized="1"
     inkscape:current-layer="svg6" />
  <path
     d="M 58.39507,1.604933 C 57.365018,0.58347168 56.008805,0.016949 54.558139,0.016949 c -1.450639,0 -2.806852,0.56652268 -3.836905,1.587984 -0.798266,0.7982827 -1.321892,1.8111627 -1.510719,2.901296 -0.01717,0.1115734 -0.03434,0.2231733 -0.04293,0.3347467 -0.0086,0.1116 -0.01714,0.2231733 -0.02573,0.3347733 -0.0086,0.08584 -0.0086,0.1802668 -0.0086,0.2660801 v 0.7382133 0.3347733 0.3347467 4.0257606 h 4.025757 0.334747 0.334774 c 0.0086,-0.09443 0.0086,-0.180267 0.0086,-0.274693 V 9.871029 h -0.33478 -3.364799 V 6.8409757 6.1800424 5.4504158 c 0,-0.0944 0,-0.1802401 0.0086,-0.2746668 0.0086,-0.1116 0.01717,-0.2231733 0.03432,-0.3347733 0.01717,-0.1115734 0.03434,-0.2231733 0.06011,-0.3347467 0.18024,-0.8412 0.609439,-1.5965867 1.193119,-2.1888507 0.798293,-0.7982826 1.905572,-1.2961387 3.124452,-1.2961387 2.437786,0 4.420611,1.9828294 4.420611,4.4205895 0,1.2189067 -0.497866,2.3261866 -1.296133,3.12448 -0.592266,0.5922667 -1.347652,1.01288 -2.188852,1.19312 v 0.094427 0.7382129 c 0,0.06867 0,0.128747 0,0.197414 1.090133,-0.188853 2.103013,-0.712454 2.901305,-1.5107202 1.021433,-1.021467 1.587966,-2.386267 1.587966,-3.8369336 0,-1.4506401 -0.566533,-2.8154374 -1.587973,-3.8368961 z"
     id="path2"
     inkscape:connector-curvature="0"
     style="fill:#f7654a;stroke-width:0.26666659"
     inkscape:export-xdpi="96"
     inkscape:export-ydpi="96" />
  <path
     d="m 50.137554,6.1714558 h 0.334774 0.334746 3.030052 V 9.2014824 9.5362558 9.871029 10.60063 c 0,0.09443 0,0.180266 -0.0086,0.274693 -0.0086,0.111572 -0.01717,0.223173 -0.03432,0.334746 -0.01717,0.1116 -0.03434,0.223174 -0.06011,0.334773 -0.18024,0.8412 -0.60944,1.59656 -1.19312,2.188854 -0.798293,0.798266 -1.905572,1.296133 -3.124478,1.296133 -2.437759,0 -4.42059,-1.982853 -4.42059,-4.420614 0,-1.2188792 0.497856,-2.326186 1.296138,-3.1244525 0.592266,-0.5922668 1.347626,-1.0128801 2.188852,-1.1931467 V 5.4590024 c 0,-0.068666 0,-0.1287467 0,-0.1974133 -1.090133,0.1888267 -2.103015,0.7124266 -2.901297,1.51072 -1.030044,1.0042933 -1.596567,2.3690934 -1.596567,3.8197339 0,1.450666 0.566523,2.806879 1.587983,3.836933 1.021458,1.02144 2.386255,1.587973 3.836895,1.587973 1.450665,0 2.806878,-0.566533 3.83693,-1.587973 0.96136,-0.961386 1.519307,-2.2232 1.579386,-3.570827 0,-0.0429 0,-0.08584 0.0086,-0.128747 0,-0.02576 0,-0.04293 0,-0.06867 0,-0.02576 0,-0.04293 0,-0.0687 V 9.8538557 5.1671624 H 50.80707 50.472324 50.13755 c -0.0086,0.094427 -0.0086,0.1802667 -0.0086,0.2746667 z"
     id="path4"
     inkscape:connector-curvature="0"
     style="fill:#f7654a;stroke-width:0.26666659"
     inkscape:export-xdpi="96"
     inkscape:export-ydpi="96" />
</svg>
